<svg xmlns="http://www.w3.org/2000/svg" class="railroad" width="926" height="1342" viewBox="0 0 926 1342"><style>svg.railroad{background:#fff;font-family:monospace;font-size:13px}.rr-line{stroke:#334;stroke-width:2;fill:none}.rr-cap{fill:#334}.rr-term{fill:#e8f0ff;stroke:#334;stroke-width:2}.rr-nonterm{fill:#fff7e8;stroke:#334;stroke-width:2}.rr-label{fill:#111;text-anchor:middle;dominant-baseline:middle}.rr-comment{fill:#666;font-style:italic;text-anchor:middle;dominant-baseline:middle}.rr-title{fill:#113;font-weight:bold;font-size:15px}.rr-legend{fill:#333;font-size:12px}.rr-legend-tok{fill:#113;font-weight:bold}a:hover .rr-nonterm{fill:#ffe6b3;cursor:pointer}</style><g><g id="val"><text class="rr-title" x="16" y="31">val</text><circle class="rr-cap" cx="287" cy="42" r="3"/><path class="rr-line" d="M287 42V56"/><path class="rr-line" d="M287 56V74"/><path class="rr-line" d="M192 74H382"/><path class="rr-line" d="M192 252H382"/><path class="rr-line" d="M287 252V270"/><path class="rr-line" d="M192 74V92"/><path class="rr-line" d="M192 92V110"/><path class="rr-line" d="M42 110H342"/><path class="rr-line" d="M42 216H342"/><path class="rr-line" d="M192 216V234"/><path class="rr-line" d="M42 110V128"/><a href="#expr"><rect class="rr-nonterm" x="16" y="128" width="52" height="26" rx="4" ry="4"/><text class="rr-label" x="42" y="141">expr</text></a><path class="rr-line" d="M42 154V216"/><path class="rr-line" d="M120 110V128"/><rect class="rr-term" x="98" y="128" width="44" height="26" rx="13" ry="13"/><text class="rr-label" x="120" y="141">VAL</text><path class="rr-line" d="M120 154V172"/><a href="#expr"><rect class="rr-nonterm" x="94" y="172" width="52" height="26" rx="4" ry="4"/><text class="rr-label" x="120" y="185">expr</text></a><path class="rr-line" d="M120 198V216"/><path class="rr-line" d="M194 110V128"/><a href="#map"><rect class="rr-nonterm" x="172" y="128" width="44" height="26" rx="4" ry="4"/><text class="rr-label" x="194" y="141">map</text></a><path class="rr-line" d="M194 154V216"/><path class="rr-line" d="M268 110V128"/><a href="#list"><rect class="rr-nonterm" x="242" y="128" width="52" height="26" rx="4" ry="4"/><text class="rr-label" x="268" y="141">list</text></a><path class="rr-line" d="M268 154V216"/><path class="rr-line" d="M342 110V128"/><rect class="rr-term" x="320" y="128" width="44" height="26" rx="13" ry="13"/><text class="rr-label" x="342" y="141">VAL</text><path class="rr-line" d="M342 154V216"/><path class="rr-line" d="M192 234V252"/><path class="rr-line" d="M382 74V92"/><path class="rr-line" d="M382 92V104"/><path class="rr-line" d="M382 104V252"/><path class="rr-line" d="M287 270V288"/><a href="#list"><rect class="rr-nonterm" x="261" y="288" width="52" height="26" rx="4" ry="4"/><text class="rr-label" x="287" y="301">list</text></a><path class="rr-line" d="M287 314V328"/><circle class="rr-cap" cx="287" cy="328" r="3"/></g><g id="map"><text class="rr-title" x="16" y="377">map</text><circle class="rr-cap" cx="103.5" cy="388" r="3"/><path class="rr-line" d="M103.5 388V402"/><path class="rr-line" d="M103.5 402V420"/><path class="rr-line" d="M31 420H176"/><path class="rr-line" d="M31 526H176"/><path class="rr-line" d="M103.5 526V544"/><path class="rr-line" d="M31 420V438"/><rect class="rr-term" x="16" y="438" width="30" height="26" rx="13" ry="13"/><text class="rr-label" x="31" y="451">{</text><path class="rr-line" d="M31 464V526"/><path class="rr-line" d="M98 420V438"/><rect class="rr-term" x="83" y="438" width="30" height="26" rx="13" ry="13"/><text class="rr-label" x="98" y="451">{</text><path class="rr-line" d="M98 464V482"/><a href="#pair"><rect class="rr-nonterm" x="72" y="482" width="52" height="26" rx="4" ry="4"/><text class="rr-label" x="98" y="495">pair</text></a><path class="rr-line" d="M98 508V526"/><path class="rr-line" d="M176 420V438"/><a href="#pair"><rect class="rr-nonterm" x="150" y="438" width="52" height="26" rx="4" ry="4"/><text class="rr-label" x="176" y="451">pair</text></a><path class="rr-line" d="M176 464V526"/><path class="rr-line" d="M103.5 544V562"/><rect class="rr-term" x="88.5" y="562" width="30" height="26" rx="13" ry="13"/><text class="rr-label" x="103.5" y="575">}</text><path class="rr-line" d="M103.5 588V602"/><circle class="rr-cap" cx="103.5" cy="602" r="3"/></g><g id="list"><text class="rr-title" x="16" y="651">list</text><circle class="rr-cap" cx="109" cy="662" r="3"/><path class="rr-line" d="M109 662V676"/><path class="rr-line" d="M109 676V694"/><path class="rr-line" d="M42 694H176"/><path class="rr-line" d="M42 800H176"/><path class="rr-line" d="M109 800V818"/><path class="rr-line" d="M42 694V712"/><a href="#elem"><rect class="rr-nonterm" x="16" y="712" width="52" height="26" rx="4" ry="4"/><text class="rr-label" x="42" y="725">elem</text></a><path class="rr-line" d="M42 738V800"/><path class="rr-line" d="M109 694V712"/><rect class="rr-term" x="94" y="712" width="30" height="26" rx="13" ry="13"/><text class="rr-label" x="109" y="725">[</text><path class="rr-line" d="M109 738V800"/><path class="rr-line" d="M176 694V712"/><rect class="rr-term" x="161" y="712" width="30" height="26" rx="13" ry="13"/><text class="rr-label" x="176" y="725">[</text><path class="rr-line" d="M176 738V756"/><a href="#elem"><rect class="rr-nonterm" x="150" y="756" width="52" height="26" rx="4" ry="4"/><text class="rr-label" x="176" y="769">elem</text></a><path class="rr-line" d="M176 782V800"/><path class="rr-line" d="M109 818V836"/><rect class="rr-term" x="94" y="836" width="30" height="26" rx="13" ry="13"/><text class="rr-label" x="109" y="849">]</text><path class="rr-line" d="M109 862V876"/><circle class="rr-cap" cx="109" cy="876" r="3"/></g><g id="pair"><text class="rr-title" x="16" y="925">pair</text><circle class="rr-cap" cx="69.5" cy="936" r="3"/><path class="rr-line" d="M69.5 936V950"/><path class="rr-line" d="M69.5 950V968"/><path class="rr-line" d="M69.5 968V986"/><path class="rr-line" d="M38 986H101"/><path class="rr-line" d="M38 1136H101"/><path class="rr-line" d="M69.5 1136V1154"/><path class="rr-line" d="M38 986V1004"/><rect class="rr-term" x="16" y="1004" width="44" height="26" rx="13" ry="13"/><text class="rr-label" x="38" y="1017">KEY</text><path class="rr-line" d="M38 1030V1048"/><rect class="rr-term" x="23" y="1048" width="30" height="26" rx="13" ry="13"/><text class="rr-label" x="38" y="1061">:</text><path class="rr-line" d="M38 1074V1092"/><a href="#val"><rect class="rr-nonterm" x="16" y="1092" width="44" height="26" rx="4" ry="4"/><text class="rr-label" x="38" y="1105">val</text></a><path class="rr-line" d="M38 1118V1136"/><path class="rr-line" d="M101 986V1004"/><rect class="rr-term" x="86" y="1004" width="30" height="26" rx="13" ry="13"/><text class="rr-label" x="101" y="1017">,</text><path class="rr-line" d="M101 1030V1136"/><path class="rr-line" d="M69.5 1154V1172"/><path class="rr-line" d="M69.5 1163H141"/><path class="rr-line" d="M69.5 959H141"/><path class="rr-line" d="M141 1074V1163"/><path class="rr-line" d="M141 959V1048"/><rect class="rr-term" x="126" y="1048" width="30" height="26" rx="13" ry="13"/><text class="rr-label" x="141" y="1061">,</text><path class="rr-line" d="M69.5 1172V1190"/><rect class="rr-term" x="54.5" y="1190" width="30" height="26" rx="13" ry="13"/><text class="rr-label" x="69.5" y="1203">]</text><path class="rr-line" d="M69.5 1216V1230"/><circle class="rr-cap" cx="69.5" cy="1230" r="3"/></g><g id="elem"><text class="rr-title" x="438" y="31">elem</text><circle class="rr-cap" cx="572.75" cy="42" r="3"/><path class="rr-line" d="M572.75 42V56"/><path class="rr-line" d="M572.75 56V74"/><path class="rr-line" d="M572.75 74V92"/><path class="rr-line" d="M519.5 92H626"/><path class="rr-line" d="M519.5 314H626"/><path class="rr-line" d="M572.75 314V332"/><path class="rr-line" d="M519.5 92V110"/><path class="rr-line" d="M519.5 110V128"/><path class="rr-line" d="M453 128H586"/><path class="rr-line" d="M453 278H586"/><path class="rr-line" d="M519.5 278V296"/><path class="rr-line" d="M453 128V146"/><rect class="rr-term" x="438" y="146" width="30" height="26" rx="13" ry="13"/><text class="rr-label" x="453" y="159">,</text><path class="rr-line" d="M453 172V278"/><path class="rr-line" d="M516 128V146"/><rect class="rr-term" x="494" y="146" width="44" height="26" rx="13" ry="13"/><text class="rr-label" x="516" y="159">KEY</text><path class="rr-line" d="M516 172V190"/><rect class="rr-term" x="501" y="190" width="30" height="26" rx="13" ry="13"/><text class="rr-label" x="516" y="203">:</text><path class="rr-line" d="M516 216V234"/><a href="#val"><rect class="rr-nonterm" x="494" y="234" width="44" height="26" rx="4" ry="4"/><text class="rr-label" x="516" y="247">val</text></a><path class="rr-line" d="M516 260V278"/><path class="rr-line" d="M586 128V146"/><a href="#val"><rect class="rr-nonterm" x="564" y="146" width="44" height="26" rx="4" ry="4"/><text class="rr-label" x="586" y="159">val</text></a><path class="rr-line" d="M586 172V278"/><path class="rr-line" d="M519.5 296V314"/><path class="rr-line" d="M626 92V110"/><path class="rr-line" d="M626 110V122"/><path class="rr-line" d="M626 122V314"/><path class="rr-line" d="M572.75 332V350"/><path class="rr-line" d="M572.75 341H659"/><path class="rr-line" d="M572.75 65H659"/><path class="rr-line" d="M659 216V341"/><path class="rr-line" d="M659 65V190"/><rect class="rr-term" x="644" y="190" width="30" height="26" rx="13" ry="13"/><text class="rr-label" x="659" y="203">,</text><path class="rr-line" d="M572.75 350V368"/><rect class="rr-term" x="557.75" y="368" width="30" height="26" rx="13" ry="13"/><text class="rr-label" x="572.75" y="381">}</text><path class="rr-line" d="M572.75 394V408"/><circle class="rr-cap" cx="572.75" cy="408" r="3"/></g><g id="expr"><text class="rr-title" x="438" y="457">expr</text><circle class="rr-cap" cx="615.5" cy="468" r="3"/><path class="rr-line" d="M615.5 468V482"/><path class="rr-line" d="M615.5 482V500"/><path class="rr-line" d="M615.5 500V518"/><path class="rr-line" d="M468 518H763"/><path class="rr-line" d="M468 696H763"/><path class="rr-line" d="M615.5 696V714"/><path class="rr-line" d="M468 518V536"/><a href="#paren"><rect class="rr-nonterm" x="438" y="536" width="60" height="26" rx="4" ry="4"/><text class="rr-label" x="468" y="549">paren</text></a><path class="rr-line" d="M468 562V696"/><path class="rr-line" d="M567 518V536"/><path class="rr-line" d="M567 536V554"/><path class="rr-line" d="M539 554H595"/><path class="rr-line" d="M539 616H595"/><path class="rr-line" d="M567 616V634"/><path class="rr-line" d="M539 554V572"/><rect class="rr-term" x="524" y="572" width="30" height="26" rx="13" ry="13"/><text class="rr-label" x="539" y="585">+</text><path class="rr-line" d="M539 598V616"/><path class="rr-line" d="M595 554V572"/><rect class="rr-term" x="580" y="572" width="30" height="26" rx="13" ry="13"/><text class="rr-label" x="595" y="585">-</text><path class="rr-line" d="M595 598V616"/><path class="rr-line" d="M567 634V652"/><a href="#val"><rect class="rr-nonterm" x="545" y="652" width="44" height="26" rx="4" ry="4"/><text class="rr-label" x="567" y="665">val</text></a><path class="rr-line" d="M567 678V696"/><path class="rr-line" d="M763 518V536"/><path class="rr-line" d="M763 536V554"/><path class="rr-line" d="M651 554H875"/><path class="rr-line" d="M651 616H875"/><path class="rr-line" d="M763 616V634"/><path class="rr-line" d="M651 554V572"/><rect class="rr-term" x="636" y="572" width="30" height="26" rx="13" ry="13"/><text class="rr-label" x="651" y="585">+</text><path class="rr-line" d="M651 598V616"/><path class="rr-line" d="M707 554V572"/><rect class="rr-term" x="692" y="572" width="30" height="26" rx="13" ry="13"/><text class="rr-label" x="707" y="585">-</text><path class="rr-line" d="M707 598V616"/><path class="rr-line" d="M763 554V572"/><rect class="rr-term" x="748" y="572" width="30" height="26" rx="13" ry="13"/><text class="rr-label" x="763" y="585">*</text><path class="rr-line" d="M763 598V616"/><path class="rr-line" d="M819 554V572"/><rect class="rr-term" x="804" y="572" width="30" height="26" rx="13" ry="13"/><text class="rr-label" x="819" y="585">/</text><path class="rr-line" d="M819 598V616"/><path class="rr-line" d="M875 554V572"/><rect class="rr-term" x="860" y="572" width="30" height="26" rx="13" ry="13"/><text class="rr-label" x="875" y="585">%</text><path class="rr-line" d="M875 598V616"/><path class="rr-line" d="M763 634V652"/><a href="#val"><rect class="rr-nonterm" x="741" y="652" width="44" height="26" rx="4" ry="4"/><text class="rr-label" x="763" y="665">val</text></a><path class="rr-line" d="M763 678V696"/><path class="rr-line" d="M615.5 714V732"/><path class="rr-line" d="M615.5 723H900"/><path class="rr-line" d="M615.5 491H900"/><path class="rr-line" d="M900 491V723"/><path class="rr-line" d="M615.5 732V750"/><a href="#elem"><rect class="rr-nonterm" x="589.5" y="750" width="52" height="26" rx="4" ry="4"/><text class="rr-label" x="615.5" y="763">elem</text></a><path class="rr-line" d="M615.5 776V790"/><circle class="rr-cap" cx="615.5" cy="790" r="3"/></g><g id="paren"><text class="rr-title" x="438" y="839">paren</text><circle class="rr-cap" cx="480" cy="850" r="3"/><path class="rr-line" d="M480 850V864"/><rect class="rr-term" x="465" y="864" width="30" height="26" rx="13" ry="13"/><text class="rr-label" x="480" y="877">(</text><path class="rr-line" d="M480 890V908"/><path class="rr-line" d="M480 908V926"/><path class="rr-line" d="M460 926H500"/><path class="rr-line" d="M460 988H500"/><path class="rr-line" d="M480 988V1006"/><path class="rr-line" d="M460 926V944"/><a href="#val"><rect class="rr-nonterm" x="438" y="944" width="44" height="26" rx="4" ry="4"/><text class="rr-label" x="460" y="957">val</text></a><path class="rr-line" d="M460 970V988"/><path class="rr-line" d="M500 926V944"/><path class="rr-line" d="M500 944V956"/><path class="rr-line" d="M500 956V988"/><path class="rr-line" d="M480 1006V1024"/><rect class="rr-term" x="465" y="1024" width="30" height="26" rx="13" ry="13"/><text class="rr-label" x="480" y="1037">)</text><path class="rr-line" d="M480 1050V1064"/><circle class="rr-cap" cx="480" cy="1064" r="3"/></g><text class="rr-title" x="16" y="1279">Tokens</text><text class="rr-legend" x="16" y="1301"><tspan class="rr-legend-tok">KEY</tspan>  —  map key (text, number, string, or value)</text><text class="rr-legend" x="16" y="1319"><tspan class="rr-legend-tok">VAL</tspan>  —  a value (text, number, string, or value)</text></g></svg>